<?xml version="1.0" encoding="UTF-8"?>
<svg xmlns="http://www.w3.org/2000/svg" xmlns:xlink="http://www.w3.org/1999/xlink" width="16pt" height="16pt" viewBox="0 0 16 16" version="1.1">
<g id="surface1">
<path style=" stroke:none;fill-rule:nonzero;fill:rgb(0%,0%,0%);fill-opacity:1;" d="M 7.855469 6.148438 C 7.660156 5.953125 7.34375 5.949219 7.144531 6.144531 L 5.5 7.792969 L 4.855469 7.144531 C 4.660156 6.949219 4.34375 6.949219 4.148438 7.144531 C 3.953125 7.339844 3.953125 7.65625 4.148438 7.851562 L 5.148438 8.851562 C 5.242188 8.949219 5.371094 9 5.5 9 C 5.628906 9 5.757812 8.949219 5.855469 8.855469 L 7.855469 6.855469 C 8.050781 6.660156 8.050781 6.34375 7.855469 6.148438 Z M 7.855469 6.148438 "/>
<path style=" stroke:none;fill-rule:nonzero;fill:rgb(0%,0%,0%);fill-opacity:1;" d="M 7.855469 10.148438 C 7.660156 9.953125 7.34375 9.949219 7.144531 10.144531 L 5.5 11.792969 L 4.855469 11.148438 C 4.660156 10.953125 4.34375 10.953125 4.148438 11.148438 C 3.953125 11.34375 3.953125 11.660156 4.148438 11.855469 L 5.148438 12.855469 C 5.242188 12.949219 5.371094 13 5.5 13 C 5.628906 13 5.757812 12.949219 5.855469 12.855469 L 7.855469 10.855469 C 8.050781 10.660156 8.050781 10.34375 7.855469 10.148438 Z M 7.855469 10.148438 "/>
<path style=" stroke:none;fill-rule:nonzero;fill:rgb(0%,0%,0%);fill-opacity:1;" d="M 11.5 7 L 9.5 7 C 9.222656 7 9 7.222656 9 7.5 C 9 7.777344 9.222656 8 9.5 8 L 11.5 8 C 11.777344 8 12 7.777344 12 7.5 C 12 7.222656 11.777344 7 11.5 7 Z M 11.5 7 "/>
<path style=" stroke:none;fill-rule:nonzero;fill:rgb(0%,0%,0%);fill-opacity:1;" d="M 11.5 11 L 9.5 11 C 9.222656 11 9 11.222656 9 11.5 C 9 11.777344 9.222656 12 9.5 12 L 11.5 12 C 11.777344 12 12 11.777344 12 11.5 C 12 11.222656 11.777344 11 11.5 11 Z M 11.5 11 "/>
<path style=" stroke:none;fill-rule:nonzero;fill:rgb(0%,0%,0%);fill-opacity:1;" d="M 13 2 L 11 2 L 11 1.5 C 11 1.222656 10.777344 1 10.5 1 L 9.414062 1 C 9.207031 0.417969 8.652344 0 8 0 C 7.347656 0 6.792969 0.417969 6.585938 1 L 5.5 1 C 5.222656 1 5 1.222656 5 1.5 L 5 2 L 3 2 C 2.449219 2 2 2.449219 2 3 L 2 15 C 2 15.550781 2.449219 16 3 16 L 13 16 C 13.550781 16 14 15.550781 14 15 L 14 3 C 14 2.449219 13.550781 2 13 2 Z M 6 2 L 7 2 C 7.277344 2 7.5 1.777344 7.5 1.5 C 7.5 1.222656 7.722656 1 8 1 C 8.277344 1 8.5 1.222656 8.5 1.5 C 8.5 1.777344 8.722656 2 9 2 L 10 2 L 10 3 L 6 3 Z M 13 15 L 3 15 L 3 3 L 5 3 L 5 3.5 C 5 3.777344 5.222656 4 5.5 4 L 10.5 4 C 10.777344 4 11 3.777344 11 3.5 L 11 3 L 13 3 Z M 13 15 "/>
</g>
</svg>
